<svg xmlns="http://www.w3.org/2000/svg" width="453.303" height="187.256"><path d="M0 0h453.303v187.256H0z" style="fill:#fff"/><path d="M194.332 36.013h40.733V20.266h-40.733z" style="fill:none;stroke:#000;stroke-width:.531333;stroke-linecap:butt;stroke-linejoin:miter;stroke-miterlimit:10;stroke-dasharray:none;stroke-opacity:1"/><text xml:space="preserve" x="198.758" y="31.428" style="font-size:16px;stroke-width:1.33333"><tspan x="198.75836 206.72844 214.69852 222.66859" y="31.428" style="font-variant:normal;font-weight:400;font-size:13.2835px;font-family:&quot;Source Code Pro&quot;,monospace;writing-mode:lr-tb;fill:#000;fill-opacity:1;fill-rule:nonzero;stroke:none;stroke-width:1.33333">core</tspan></text><path d="M20.266 105.456h48.703v-18.57H20.266Z" style="fill:none;stroke:#000;stroke-width:.531333;stroke-linecap:butt;stroke-linejoin:miter;stroke-miterlimit:10;stroke-dasharray:none;stroke-opacity:1"/><text xml:space="preserve" x="24.694" y="100.87" style="font-size:16px;stroke-width:1.33333"><tspan x="24.694355 32.664436 40.634514 48.604595 56.574673" y="100.87" style="font-variant:normal;font-weight:400;font-size:13.2835px;font-family:&quot;Source Code Pro&quot;,monospace;writing-mode:lr-tb;fill:#000;fill-opacity:1;fill-rule:nonzero;stroke:none;stroke-width:1.33333">cache</tspan></text><path d="M82.874 91.753H195.34v-21.4H82.874Z" style="fill:none;stroke:#000;stroke-width:.531333;stroke-linecap:butt;stroke-linejoin:miter;stroke-miterlimit:10;stroke-dasharray:none;stroke-opacity:1"/><text xml:space="preserve" x="87.302" y="84.338" style="font-size:16px;stroke-width:1.33333"><tspan x="87.302353 95.272438 103.24252 111.21259 119.18268 127.15276 135.12283 143.09291 151.06299 159.03307 167.00316 174.97324 182.94331" y="84.338" style="font-variant:normal;font-weight:400;font-size:13.2835px;font-family:&quot;Source Code Pro&quot;,monospace;writing-mode:lr-tb;fill:#000;fill-opacity:1;fill-rule:nonzero;stroke:none;stroke-width:1.33333">manager-index</tspan></text><path d="M74.904 121.99H203.31v-21.4H74.904Z" style="fill:none;stroke:#000;stroke-width:.531333;stroke-linecap:butt;stroke-linejoin:miter;stroke-miterlimit:10;stroke-dasharray:3.98511,3.98511;stroke-dashoffset:0;stroke-opacity:1"/><text xml:space="preserve" x="79.332" y="114.573" style="font-size:16px;stroke-width:1.33333"><tspan x="79.331688 87.301765 95.271851 103.24193 111.21201 119.18209 127.15217 135.12224 143.09233 151.06241 159.03249 167.00256 174.97264 182.94273 190.9128" y="114.573" style="font-variant:normal;font-weight:400;font-size:13.2835px;font-family:&quot;Source Code Pro&quot;,monospace;writing-mode:lr-tb;fill:#000;fill-opacity:1;fill-rule:nonzero;stroke:none;stroke-width:1.33333">manager-pointer</tspan></text><path d="M220.172 105.456h64.644v-18.57h-64.644z" style="fill:none;stroke:#000;stroke-width:.531333;stroke-linecap:butt;stroke-linejoin:miter;stroke-miterlimit:10;stroke-dasharray:none;stroke-opacity:1"/><text xml:space="preserve" x="224.598" y="100.87" style="font-size:16px;stroke-width:1.33333"><tspan x="224.59836 232.56844 240.53851 248.50859 256.47867 264.44876 272.41882" y="100.87" style="font-variant:normal;font-weight:400;font-size:13.2835px;font-family:&quot;Source Code Pro&quot;,monospace;writing-mode:lr-tb;fill:#000;fill-opacity:1;fill-rule:nonzero;stroke:none;stroke-width:1.33333">reorder</tspan></text><path d="M344.487 44.983h80.584v-18.57h-80.584z" style="fill:none;stroke:#000;stroke-width:.531333;stroke-linecap:butt;stroke-linejoin:miter;stroke-miterlimit:10;stroke-dasharray:none;stroke-opacity:1"/><text xml:space="preserve" x="348.912" y="40.398" style="font-size:16px;stroke-width:1.33333"><tspan x="348.91168 356.88177 364.85184 372.82193 380.79199 388.76208 396.73218 404.70224 412.67233" y="40.398" style="font-variant:normal;font-weight:400;font-size:13.2835px;font-family:&quot;Source Code Pro&quot;,monospace;writing-mode:lr-tb;fill:#000;fill-opacity:1;fill-rule:nonzero;stroke:none;stroke-width:1.33333">rules-bdd</tspan></text><path d="M336.517 75.22h96.525V56.65h-96.525z" style="fill:none;stroke:#000;stroke-width:.531333;stroke-linecap:butt;stroke-linejoin:miter;stroke-miterlimit:10;stroke-dasharray:none;stroke-opacity:1"/><text xml:space="preserve" x="340.941" y="70.634" style="font-size:16px;stroke-width:1.33333"><tspan x="340.94104 348.9111 356.8812 364.85126 372.82135 380.79141 388.76151 396.73157 404.70166 412.67175 420.64182" y="70.634" style="font-variant:normal;font-weight:400;font-size:13.2835px;font-family:&quot;Source Code Pro&quot;,monospace;writing-mode:lr-tb;fill:#000;fill-opacity:1;fill-rule:nonzero;stroke:none;stroke-width:1.33333">rules-mtbdd</tspan></text><path d="M344.487 105.456h80.584v-18.57h-80.584z" style="fill:none;stroke:#000;stroke-width:.531333;stroke-linecap:butt;stroke-linejoin:miter;stroke-miterlimit:10;stroke-dasharray:none;stroke-opacity:1"/><text xml:space="preserve" x="348.912" y="100.87" style="font-size:16px;stroke-width:1.33333"><tspan x="348.91168 356.88177 364.85184 372.82193 380.79199 388.76208 396.73218 404.70224 412.67233" y="100.87" style="font-variant:normal;font-weight:400;font-size:13.2835px;font-family:&quot;Source Code Pro&quot;,monospace;writing-mode:lr-tb;fill:#000;fill-opacity:1;fill-rule:nonzero;stroke:none;stroke-width:1.33333">rules-tdd</tspan></text><path d="M340.502 135.693h88.555v-18.57h-88.555z" style="fill:none;stroke:#000;stroke-width:.531333;stroke-linecap:butt;stroke-linejoin:miter;stroke-miterlimit:10;stroke-dasharray:none;stroke-opacity:1"/><text xml:space="preserve" x="344.926" y="131.106" style="font-size:16px;stroke-width:1.33333"><tspan x="344.92636 352.89642 360.86652 368.83661 376.80667 384.77676 392.74683 400.71692 408.68698 416.65707" y="131.106" style="font-variant:normal;font-weight:400;font-size:13.2835px;font-family:&quot;Source Code Pro&quot;,monospace;writing-mode:lr-tb;fill:#000;fill-opacity:1;fill-rule:nonzero;stroke:none;stroke-width:1.33333">rules-zbdd</tspan></text><path d="M344.487 165.93h80.584v-18.57h-80.584z" style="fill:none;stroke:#000;stroke-width:.531333;stroke-linecap:butt;stroke-linejoin:miter;stroke-miterlimit:10;stroke-dasharray:3.98511,3.98511;stroke-dashoffset:0;stroke-opacity:1"/><text xml:space="preserve" x="348.912" y="161.342" style="font-size:16px;stroke-width:1.33333"><tspan x="348.91168 356.88177 364.85184 372.82193 380.79199 388.76208 396.73218 404.70224 412.67233" y="161.342" style="font-variant:normal;font-weight:400;font-size:13.2835px;font-family:&quot;Source Code Pro&quot;,monospace;writing-mode:lr-tb;fill:#000;fill-opacity:1;fill-rule:nonzero;stroke:none;stroke-width:1.33333">rules-...</tspan></text><path d="M190.347 165.93h48.703v-18.57h-48.704Z" style="fill:none;stroke:#000;stroke-width:2.65673;stroke-linecap:butt;stroke-linejoin:miter;stroke-miterlimit:10;stroke-dasharray:none;stroke-opacity:1"/><text xml:space="preserve" x="194.773" y="161.342" style="font-size:16px;stroke-width:1.33333"><tspan x="194.77303 202.7431 210.71318 218.68326 226.65335" y="161.342" style="font-variant:normal;font-weight:400;font-size:13.2835px;font-family:&quot;Source Code Pro&quot;,monospace;writing-mode:lr-tb;fill:#000;fill-opacity:1;fill-rule:nonzero;stroke:none;stroke-width:1.33333">oxidd</tspan></text><path d="M55.284 86.621c43.183-39.74 80.158-55.15 134.005-57.615" style="fill:none;stroke:#000;stroke-width:.531333;stroke-linecap:butt;stroke-linejoin:miter;stroke-miterlimit:10;stroke-dasharray:none;stroke-opacity:1"/><path d="M194.066 28.787c-1.428-.2-3.764-.891-5.399-1.747l.182 3.98c1.55-1.001 3.814-1.903 5.217-2.233" style="fill:#000;fill-opacity:1;fill-rule:nonzero;stroke:none;stroke-width:1.33326"/><path d="M150.071 70.088c15.892-16.246 26.678-23.979 42.856-31.741" style="fill:none;stroke:#000;stroke-width:.531333;stroke-linecap:butt;stroke-linejoin:miter;stroke-miterlimit:10;stroke-dasharray:none;stroke-opacity:1"/><path d="M197.239 36.278c-1.393.374-3.813.651-5.653.502l1.724 3.593c1.035-1.528 2.766-3.242 3.929-4.095" style="fill:#000;fill-opacity:1;fill-rule:nonzero;stroke:none;stroke-width:1.33327"/><path d="M190.7 100.324c11.752-23.295 16.224-38.136 18.736-59.297" style="fill:none;stroke:#000;stroke-width:.531333;stroke-linecap:butt;stroke-linejoin:miter;stroke-miterlimit:10;stroke-dasharray:3.98511,3.98511;stroke-dashoffset:0;stroke-opacity:1"/><path d="M210 36.278c-.432 1.376-1.494 3.568-2.606 5.042l3.958.47c-.736-1.693-1.256-4.074-1.353-5.512" style="fill:#000;fill-opacity:1;fill-rule:nonzero;stroke:none;stroke-width:1.33329"/><path d="M249.197 86.621c-7.331-21.298-13.724-32.836-24.888-46.626" style="fill:none;stroke:#000;stroke-width:.531333;stroke-linecap:butt;stroke-linejoin:miter;stroke-miterlimit:10;stroke-dasharray:none;stroke-opacity:1"/><path d="M221.3 36.278c.685 1.269 1.514 3.56 1.795 5.383l3.097-2.507c-1.726-.654-3.794-1.942-4.892-2.876" style="fill:#000;fill-opacity:1;fill-rule:nonzero;stroke:none;stroke-width:1.3333"/><path d="M344.221 32.15c-42.241-5.726-66.297-6.87-104.112-5.363" style="fill:none;stroke:#000;stroke-width:.531333;stroke-linecap:butt;stroke-linejoin:miter;stroke-miterlimit:10;stroke-dasharray:none;stroke-opacity:1"/><path d="M235.33 26.978c1.427.209 3.76.913 5.389 1.78l-.159-3.983c-1.555.993-3.824 1.88-5.23 2.203" style="fill:#000;fill-opacity:1;fill-rule:nonzero;stroke:none;stroke-width:1.33327"/><path d="M336.251 61.689c-36.657-18.985-59.98-26.287-96.178-30.976" style="fill:none;stroke:#000;stroke-width:.531333;stroke-linecap:butt;stroke-linejoin:miter;stroke-miterlimit:10;stroke-dasharray:none;stroke-opacity:1"/><path d="M235.33 30.099c1.372.445 3.553 1.531 5.014 2.658l.512-3.951c-1.7.717-4.086 1.211-5.525 1.293" style="fill:#000;fill-opacity:1;fill-rule:nonzero;stroke:none;stroke-width:1.33327"/><path d="M344.221 92.623c-37.946-29.861-63.02-43.307-104.348-56.896" style="fill:none;stroke:#000;stroke-width:.531333;stroke-linecap:butt;stroke-linejoin:miter;stroke-miterlimit:10;stroke-dasharray:none;stroke-opacity:1"/><path d="M235.33 34.233c1.264.695 3.202 2.172 4.426 3.553L241 34c-1.804.386-4.24.424-5.67.233" style="fill:#000;fill-opacity:1;fill-rule:nonzero;stroke:none;stroke-width:1.33329"/><path d="M340.236 122.51c-36.39-40.718-61.406-60.414-105.314-83.971" style="fill:none;stroke:#000;stroke-width:.531333;stroke-linecap:butt;stroke-linejoin:miter;stroke-miterlimit:10;stroke-dasharray:none;stroke-opacity:1"/><path d="M230.708 36.278c1.123.904 2.775 2.695 3.74 4.268l1.884-3.512c-1.844.066-4.25-.32-5.624-.756" style="fill:#000;fill-opacity:1;fill-rule:nonzero;stroke:none;stroke-width:1.33328"/><path d="M344.221 156.645C306.994 102.245 280 74.665 230.3 39.063" style="fill:none;stroke:#000;stroke-width:.531333;stroke-linecap:butt;stroke-linejoin:miter;stroke-miterlimit:10;stroke-dasharray:3.98511,3.98511;stroke-dashoffset:0;stroke-opacity:1"/><path d="M226.412 36.278c.997 1.041 2.405 3.03 3.16 4.714l2.32-3.24c-1.838-.172-4.173-.865-5.48-1.474" style="fill:#000;fill-opacity:1;fill-rule:nonzero;stroke:none;stroke-width:1.33327"/><path d="M214.698 146.032V41.06" style="fill:none;stroke:#000;stroke-width:.531333;stroke-linecap:butt;stroke-linejoin:miter;stroke-miterlimit:10;stroke-dasharray:none;stroke-opacity:1"/><path d="M214.698 36.278c-.265 1.417-1.062 3.72-1.992 5.314h3.985c-.93-1.594-1.727-3.897-1.993-5.314" style="fill:#000;fill-opacity:1;fill-rule:nonzero;stroke:none;stroke-width:1.33333"/><path d="M189.018 156.836c-55.697-1.015-90.832-14.534-129.239-47.974" style="fill:none;stroke:#000;stroke-width:.531333;stroke-linecap:butt;stroke-linejoin:miter;stroke-miterlimit:10;stroke-dasharray:none;stroke-opacity:1"/><path d="M56.173 105.722c.894 1.13 2.107 3.244 2.698 4.992l2.617-3.006c-1.813-.345-4.072-1.256-5.315-1.986" style="fill:#000;fill-opacity:1;fill-rule:nonzero;stroke:none;stroke-width:1.33331"/><path d="M208.57 146.032c3.917-25.543.454-42.894-10.482-60.892" style="fill:none;stroke:#000;stroke-width:.531333;stroke-linecap:butt;stroke-linejoin:miter;stroke-miterlimit:10;stroke-dasharray:none;stroke-opacity:1"/><path d="M195.605 81.053c.509 1.35 1.023 3.73 1.056 5.576l3.406-2.07c-1.622-.879-3.499-2.433-4.462-3.506" style="fill:#000;fill-opacity:1;fill-rule:nonzero;stroke:none;stroke-width:1.33327"/><path d="M224.251 146.032c12.144-13.886 17.723-23.109 22.658-35.85" style="fill:none;stroke:#000;stroke-width:.531333;stroke-linecap:butt;stroke-linejoin:miter;stroke-miterlimit:10;stroke-dasharray:none;stroke-opacity:1"/><path d="M248.636 105.722c-.759 1.225-2.334 3.084-3.776 4.235l3.716 1.44c-.292-1.823-.204-4.258.06-5.675" style="fill:#000;fill-opacity:1;fill-rule:nonzero;stroke:none;stroke-width:1.33325"/><path d="M231.544 146.032c50.648-33.477 76.533-58.005 109.83-102.943" style="fill:none;stroke:#000;stroke-width:.531333;stroke-linecap:butt;stroke-linejoin:miter;stroke-miterlimit:10;stroke-dasharray:none;stroke-opacity:1"/><path d="M344.221 39.247c-1.057.98-3.068 2.355-4.764 3.082l3.202 2.373c.202-1.834.932-4.159 1.562-5.455" style="fill:#000;fill-opacity:1;fill-rule:nonzero;stroke:none;stroke-width:1.33327"/><path d="M237.019 146.032c43.283-22.43 66.23-39.97 95.995-72.332" style="fill:none;stroke:#000;stroke-width:.531333;stroke-linecap:butt;stroke-linejoin:miter;stroke-miterlimit:10;stroke-dasharray:none;stroke-opacity:1"/><path d="M336.251 70.18c-1.155.864-3.3 2.019-5.063 2.563l2.933 2.697c.394-1.803 1.366-4.037 2.13-5.26" style="fill:#000;fill-opacity:1;fill-rule:nonzero;stroke:none;stroke-width:1.33327"/><path d="M240.379 150.377c43.494-12.475 67.237-24.058 99.974-47.846" style="fill:none;stroke:#000;stroke-width:.531333;stroke-linecap:butt;stroke-linejoin:miter;stroke-miterlimit:10;stroke-dasharray:none;stroke-opacity:1"/><path d="M344.221 99.72c-1.302.618-3.633 1.327-5.47 1.511l2.343 3.224c.743-1.689 2.137-3.687 3.127-4.735" style="fill:#000;fill-opacity:1;fill-rule:nonzero;stroke:none;stroke-width:1.33331"/><path d="M240.379 155.816c40.238-3.047 63.088-8.886 95.5-23.54" style="fill:none;stroke:#000;stroke-width:.531333;stroke-linecap:butt;stroke-linejoin:miter;stroke-miterlimit:10;stroke-dasharray:none;stroke-opacity:1"/><path d="M340.236 130.305c-1.4.342-3.827.564-5.662.374l1.642 3.63c1.069-1.503 2.839-3.178 4.02-4.004" style="fill:#000;fill-opacity:1;fill-rule:nonzero;stroke:none;stroke-width:1.33327"/></svg>